<?xml version="1.0" encoding="UTF-8" standalone="no"?>
<svg
   xmlns:dc="http://purl.org/dc/elements/1.1/"
   xmlns:cc="http://creativecommons.org/ns#"
   xmlns:rdf="http://www.w3.org/1999/02/22-rdf-syntax-ns#"
   xmlns:svg="http://www.w3.org/2000/svg"
   xmlns="http://www.w3.org/2000/svg"
   viewBox="0 0 390.32001 35.293331"
   height="35.293331"
   width="390.32001"
   xml:space="preserve"
   id="svg2"
   version="1.1"><metadata
     id="metadata8"><rdf:RDF><cc:Work
         rdf:about=""><dc:format>image/svg+xml</dc:format><dc:type
           rdf:resource="http://purl.org/dc/dcmitype/StillImage" /></cc:Work></rdf:RDF></metadata><defs
     id="defs6" /><g
     transform="matrix(1.3333333,0,0,-1.3333333,0,35.293333)"
     id="g10"><g
       transform="scale(0.1)"
       id="g12"><path
         id="path14"
         style="fill:#ffffff;fill-opacity:1;fill-rule:nonzero;stroke:none"
         d="m 1222.65,229.469 -5.55,-7.395 c 0,0 -13.59,2.879 -14.79,7.395 -1.97,7.383 4.07,12.336 10.05,9.254 5.97,-3.09 10.29,-9.254 10.29,-9.254" /><path
         id="path16"
         style="fill:#ffffff;fill-opacity:1;fill-rule:nonzero;stroke:none"
         d="m 1482.17,201.961 5.55,-6.16 c 0,0 16.03,3.078 16.03,6.16 0,3.078 -2.47,7.402 -8.02,7.402 -5.54,0 -13.56,-7.402 -13.56,-7.402" /><path
         id="path18"
         style="fill:#ffffff;fill-opacity:1;fill-rule:nonzero;stroke:none"
         d="m 1336.69,111.473 c 0,0 -13.16,-7.325 2.97,-20.3714 16.14,-13.0469 26.62,-9.961 31.55,-4.4141 4.93,5.5469 13.57,15.4105 13.57,18.4965 0,3.074 -17.88,14.421 -48.09,6.289" /><path
         id="path20"
         style="fill:#834d2f;fill-opacity:1;fill-rule:nonzero;stroke:none"
         d="m 1607.11,119.918 c -10.65,0 -17.76,-6.395 -17.76,-15.75 0,-3.516 1.2,-6.5625 3.44,-8.9649 2.16,-2.2383 4.8,-3.3593 9.76,-4.8828 l 5.52,-1.6797 c 6.64,-2.0039 9.84,-5.3633 9.84,-10.2461 0,-3.2031 -1.28,-5.8398 -3.93,-7.8398 -2.31,-1.7578 -4.55,-2.3945 -8.71,-2.3945 -5.52,0 -10.16,1.4375 -14.72,4.7187 l -2.88,-5.1172 c 5.44,-3.3515 11.04,-4.9531 17.6,-4.9531 5.04,0 8.71,1.0352 12.32,3.3516 4.8,3.2812 7.59,8.0742 7.59,13.1914 0,3.4492 -1.35,7.1289 -3.59,9.6875 -2.16,2.5703 -4.8,4.0039 -9.69,5.5273 l -6.31,2.0039 c -6.48,2 -9.13,4.5587 -9.13,8.9527 0,5.606 4.09,9.043 10.97,9.043 4.72,0 8.08,-1.199 13.36,-4.636 l 2.88,4.715 c -5.2,3.515 -10.64,5.273 -16.56,5.273 m 49.6,-56.0742 h 6.39 v 21.8476 h 9.61 c 7.2,0 10.32,1.5899 13.12,4.3047 3.52,3.3594 5.11,7.4414 5.11,13.0469 0,5.527 -2.4,10.09 -7.03,13.125 -2.96,1.906 -6.08,2.551 -12.01,2.551 h -15.19 z m 13.36,49.3672 c 5.2,0 8.16,-0.801 10.4,-2.727 2.24,-1.914 3.2,-4.636 3.2,-8.73 0,-3.1134 -0.88,-5.5938 -2.8,-7.754 -1.84,-2.0781 -3.92,-2.9687 -8.57,-2.9687 h -9.2 v 22.1797 z m 59.2,5.508 -18.32,-54.8752 h 6.64 l 5.28,16.8867 h 20.48 l 5.19,-16.8867 h 7.45 l -18.16,54.8752 z m 1.28,-13.828 2.72,8.074 2.64,-8.477 c 1.44,-4.7341 5.76,-18.406 5.76,-18.406 h -16.96 c 0,0 5.51,17.684 5.84,18.809 m 67.92,15.027 c -10.64,0 -17.75,-6.395 -17.75,-15.75 0,-3.516 1.19,-6.5625 3.43,-8.9649 2.16,-2.2383 4.8,-3.3593 9.76,-4.8828 l 5.52,-1.6797 c 6.64,-2.0039 9.85,-5.3633 9.85,-10.2461 0,-3.2031 -1.28,-5.8398 -3.92,-7.8398 -2.32,-1.7578 -4.57,-2.3945 -8.73,-2.3945 -5.52,0 -10.17,1.4375 -14.72,4.7187 l -2.87,-5.1172 c 5.43,-3.3515 11.03,-4.9531 17.59,-4.9531 5.04,0 8.73,1.0352 12.33,3.3516 4.79,3.2812 7.59,8.0742 7.59,13.1914 0,3.4492 -1.36,7.1289 -3.6,9.6875 -2.15,2.5703 -4.8,4.0039 -9.67,5.5273 l -6.33,2.0039 c -6.48,2 -9.12,4.5587 -9.12,8.9527 0,5.606 4.07,9.043 10.96,9.043 4.73,0 8.09,-1.199 13.36,-4.636 l 2.88,4.715 c -5.19,3.515 -10.64,5.273 -16.56,5.273 m 64.32,0 c -10.64,0 -17.75,-6.395 -17.75,-15.75 0,-3.516 1.2,-6.5625 3.43,-8.9649 2.16,-2.2383 4.8,-3.3593 9.76,-4.8828 l 5.52,-1.6797 c 6.65,-2.0039 9.85,-5.3633 9.85,-10.2461 0,-3.2031 -1.29,-5.8398 -3.92,-7.8398 -2.33,-1.7578 -4.57,-2.3945 -8.73,-2.3945 -5.52,0 -10.16,1.4375 -14.71,4.7187 l -2.88,-5.1172 c 5.43,-3.3515 11.02,-4.9531 17.59,-4.9531 5.04,0 8.73,1.0352 12.33,3.3516 4.79,3.2812 7.59,8.0742 7.59,13.1914 0,3.4492 -1.36,7.1289 -3.6,9.6875 -2.15,2.5703 -4.79,4.0039 -9.68,5.5273 l -6.32,2.0039 c -6.48,2 -9.12,4.5587 -9.12,8.9527 0,5.606 4.08,9.043 10.96,9.043 4.72,0 8.09,-1.199 13.35,-4.636 l 2.89,4.715 c -5.19,3.515 -10.63,5.273 -16.56,5.273 m 96.01,-56.0742 h 6.63 v 26.0859 h 17.6 v 5.3516 h -17.6 v 17.7617 h 21.2 l 1.04,5.43 h -28.87 z m 56.31,16.5546 c 0,-6.0859 0.4,-7.1992 1.6,-9.6015 2.56,-5.2031 7.76,-7.9102 16.24,-7.9102 6.64,0 11.03,1.3477 14.4,4.2305 3.36,2.957 4.16,5.6055 4.16,13.4375 v 38.1643 h -6.48 V 81.2773 c 0,-5.1171 -0.4,-7.121 -2.08,-9.3554 -1.68,-2.2461 -5.12,-3.4492 -9.68,-3.4492 -6.16,0 -10.16,2.4023 -11.12,6.7187 -0.32,1.5234 -0.56,4.6484 -0.56,8.4102 v 35.1174 h -6.48 z m 5.76,45.9176 c 0,-2.316 1.84,-4.238 4.16,-4.238 2.32,0 4.08,1.922 4.08,4.238 0,2.247 -1.84,4.082 -4.16,4.082 -2.24,0 -4.08,-1.835 -4.08,-4.082 m 16.48,0 c 0,-2.316 1.92,-4.238 4.24,-4.238 2.24,0 4.07,1.922 4.07,4.238 0,2.247 -1.91,4.082 -4.15,4.082 -2.32,0 -4.16,-1.835 -4.16,-4.082 m 47.44,-62.4722 h 6.55 v 24.7265 c 2.73,-0.0859 3.93,-0.8008 6.09,-3.5234 2.96,-3.6055 6.32,-8.4102 9.76,-13.6133 2.4,-3.6719 2.96,-4.7188 4.24,-7.5898 h 8.23 c 0,0 -6.15,9.1914 -8.15,12.1484 -1.92,2.7344 -3.37,4.8945 -4.48,6.418 -1.12,1.5117 -2.96,4.082 -5.52,6.1601 h 0.79 c 8.73,0 14.56,5.9961 14.56,15.0777 0,5.86 -2.95,9.563 -5.43,11.555 -2.64,2.156 -6.32,3.516 -13.84,3.516 h -12.8 z m 12.96,49.3672 c 2.96,0 5.12,-0.402 6.88,-1.133 3.12,-1.203 5.36,-4.738 5.36,-8.351 0,-3.622 -0.96,-6.5903 -2.8,-8.2817 -2,-2.0117 -5.04,-2.8125 -9.92,-2.8125 h -5.85 v 20.5782 z m 98.71,-49.3672 h 6.64 v 54.8752 h -6.64 z m 6.96,29.0429 20.96,-29.0429 h 8.4 l -21.92,29.121 22.08,25.7542 h -8.4 z m 59.29,-29.0429 h 27.35 l 0.88,5.5078 h -21.68 v 49.3674 h -6.55 z m 57.36,0 h 30.79 v 5.6757 h -24.16 v 19.9297 h 18.8 v 5.6641 h -18.8 v 17.7737 h 22.48 l 0.88,5.429 h -29.99 z m 61.6,0 h 6.39 v 54.8752 h -6.39 z m 40.72,0 h 6.79 l -0.32,31.75 c -0.08,5.4372 -0.32,10.2422 -0.73,14.8832 1.13,-2.961 3.69,-8.157 6.25,-13.1176 l 17.61,-33.5156 h 6.87 v 54.7192 h -6.47 l 0.24,-29.7661 c 0.08,-7.1992 0.72,-16.6406 0.72,-16.6406 0,0 -3.13,7.5195 -5.12,11.4453 l -18.25,34.9614 h -7.59 z m 133.6,20.7148 c -0.32,-3.5273 -0.56,-4.8047 -1.52,-6.3203 l -12.64,12.5703 4.56,2.6367 c 2.24,1.2774 4.08,3.0469 5.35,5.0391 1.12,1.7656 1.52,3.2036 1.52,5.5276 0,3.359 -1.28,6.316 -3.59,8.476 -2.56,2.227 -7.04,3.828 -11.13,3.828 -3.75,0 -7.28,-1.281 -10,-3.586 -2.72,-2.324 -4.23,-5.925 -4.23,-9.042 0,-1.602 0.48,-3.204 1.27,-4.8833 1.2,-2.1563 3.92,-5.1953 6.48,-7.4414 -3.28,-1.7578 -6.48,-3.3672 -8.55,-6.0039 -1.76,-2.2461 -2.64,-4.961 -2.64,-7.9219 0,-4.4023 1.92,-8.3984 5.43,-11.1211 3.44,-2.6289 9.29,-3.6719 13.13,-3.6719 6.4,0 12.46,2.4805 15.68,6.3946 l 5.27,-5.1172 h 8.32 l -10.07,9.9922 c 1.35,2.6445 2.07,5.2031 2.47,7.8398 0.32,2.1602 0.48,4.4063 0.48,8.7305 l -5.52,-0.1563 c 0,0 0,-4.0898 -0.07,-5.7695 m -21.28,12.9687 c -2.82,2.8007 -3.69,4.3167 -3.69,6.9607 0,2.004 0.64,3.84 1.68,4.875 1.68,1.602 3.61,2.403 5.93,2.403 4.56,0 7.76,-3.196 7.76,-7.676 0,-1.281 -0.33,-2.805 -0.8,-3.84 -1.04,-2.0781 -3.69,-4.2461 -7.36,-6.0039 -1.12,0.957 -2.48,2.2461 -3.52,3.2812 m 16.95,-24.8945 c -2.07,-2.793 -6.71,-5.1172 -12.07,-5.1172 -2.72,0 -4.72,0.4024 -6.57,1.2813 -3.28,1.5234 -5.29,4.5586 -5.29,8.164 0,4.961 2.65,8.5547 8.1,11.1133 z m 94.09,46.5622 c -5.69,0 -10.41,-1.679 -14.33,-5.183 -5.76,-5.039 -8.47,-12.578 -8.47,-23.0589 0,-9.4218 2.16,-16.2383 6.79,-21.2773 4.16,-4.4727 10,-6.8672 16.89,-6.8672 5.6,0 11.51,1.6016 15.43,4.1523 v 25.5938 h -18.47 l 1.28,-5.4297 h 11.04 V 70.3984 c -2.32,-1.4453 -5.28,-2.1601 -8.72,-2.1601 -5.21,0 -10.81,2.2383 -13.29,5.8398 -2.48,3.6055 -3.84,9.4453 -3.84,16.6407 0,5.1953 0.72,9.8362 2.16,13.9262 2.24,6.32 7.28,9.277 13.69,9.277 4.24,0 7.44,-1.192 11.92,-4.238 l 2.95,4.082 c -4.15,3.593 -9.19,5.429 -15.03,5.429 m 48.72,-55.3512 h 6.55 v 24.7265 c 2.72,-0.0859 3.92,-0.8008 6.08,-3.5234 2.96,-3.6055 6.33,-8.4102 9.77,-13.6133 2.4,-3.6719 2.95,-4.7188 4.24,-7.5898 h 8.23 c 0,0 -6.16,9.1914 -8.15,12.1484 -1.92,2.7344 -3.36,4.8945 -4.48,6.418 -1.12,1.5117 -2.96,4.082 -5.53,6.1601 h 0.81 c 8.72,0 14.55,5.9961 14.55,15.0777 0,5.86 -2.97,9.563 -5.43,11.555 -2.64,2.156 -6.32,3.516 -13.85,3.516 h -12.79 z m 12.95,49.3672 c 2.96,0 5.13,-0.402 6.89,-1.133 3.12,-1.203 5.36,-4.738 5.36,-8.351 0,-3.622 -0.96,-6.5903 -2.8,-8.2817 -2,-2.0117 -5.05,-2.8125 -9.93,-2.8125 h -5.84 v 20.5782 z m 47.14,-21.6797 c 0,-9.375 2.24,-16.8165 6.55,-21.7774 3.68,-4.2383 8.88,-6.9453 15.6,-6.9453 5.69,0 9.85,1.6016 13.92,5.2656 5.6,5.125 8,11.7656 8,22.3242 0,8.8086 -1.52,15.2036 -4.96,20.3316 -2.63,3.915 -7.75,8.946 -17.28,8.946 -13.52,0 -21.83,-10.703 -21.83,-28.1447 m 34.08,15.3597 c 1.84,-3.848 2.64,-9.3637 2.64,-17.4496 0,-9.043 -1.28,-13.4492 -4,-16.8867 -2.4,-3.1133 -5.77,-4.7149 -10.25,-4.7149 -4.48,0 -9.6,2.4024 -11.68,5.918 -2.16,3.6797 -3.52,10.8789 -3.52,19.1289 0,6.7969 0.88,11.5233 2.8,15.1173 2.08,3.926 6.64,6.406 11.76,6.406 6.32,0 10.33,-3.445 12.25,-7.519 m 56.39,13.027 c -10.65,0 -17.75,-6.395 -17.75,-15.75 0,-3.516 1.2,-6.5625 3.43,-8.9649 2.16,-2.2383 4.8,-3.3593 9.76,-4.8828 l 5.52,-1.6797 c 6.65,-2.0039 9.85,-5.3633 9.85,-10.2461 0,-3.2031 -1.28,-5.8398 -3.93,-7.8398 -2.31,-1.7578 -4.56,-2.3945 -8.72,-2.3945 -5.52,0 -10.16,1.4375 -14.71,4.7187 l -2.88,-5.1172 c 5.43,-3.3515 11.03,-4.9531 17.59,-4.9531 5.04,0 8.72,1.0352 12.33,3.3516 4.79,3.2812 7.59,8.0742 7.59,13.1914 0,3.4492 -1.36,7.1289 -3.6,9.6875 -2.15,2.5703 -4.79,4.0039 -9.67,5.5273 l -6.33,2.0039 c -6.48,2 -9.13,4.5587 -9.13,8.9527 0,5.606 4.09,9.043 10.97,9.043 4.73,0 8.09,-1.199 13.36,-4.636 l 2.88,4.715 c -5.19,3.515 -10.63,5.273 -16.56,5.273 m 64.32,0 c -10.64,0 -17.75,-6.395 -17.75,-15.75 0,-3.516 1.19,-6.5625 3.43,-8.9649 2.16,-2.2383 4.79,-3.3593 9.76,-4.8828 l 5.52,-1.6797 c 6.65,-2.0039 9.85,-5.3633 9.85,-10.2461 0,-3.2031 -1.28,-5.8398 -3.92,-7.8398 -2.33,-1.7578 -4.57,-2.3945 -8.73,-2.3945 -5.52,0 -10.16,1.4375 -14.72,4.7187 l -2.87,-5.1172 c 5.43,-3.3515 11.03,-4.9531 17.59,-4.9531 5.04,0 8.73,1.0352 12.33,3.3516 4.79,3.2812 7.59,8.0742 7.59,13.1914 0,3.4492 -1.37,7.1289 -3.6,9.6875 -2.16,2.5703 -4.79,4.0039 -9.68,5.5273 l -6.32,2.0039 c -6.48,2 -9.12,4.5587 -9.12,8.9527 0,5.606 4.08,9.043 10.96,9.043 4.71,0 8.09,-1.199 13.36,-4.636 l 2.88,4.715 c -5.19,3.515 -10.64,5.273 -16.56,5.273" /><path
         id="path22"
         style="fill:#82bae7;fill-opacity:1;fill-rule:nonzero;stroke:none"
         d="m 29.1563,147.957 c -15.9727,0 -26.63286,-9.59 -26.63286,-23.633 0,-5.285 1.78906,-9.844 5.14844,-13.437 3.23042,-3.36 7.19142,-5.039 14.64452,-7.324 l 8.2734,-2.52 c 9.9727,-3 14.7696,-8.0469 14.7696,-15.3711 0,-4.7969 -1.918,-8.7617 -5.8867,-11.7578 -3.4805,-2.6368 -6.8399,-3.6055 -13.0821,-3.6055 -8.289,0 -15.2461,2.168 -22.0781,7.082 L 0.00390625,69.7148 C 8.15625,64.6836 16.543,62.293 26.3906,62.293 c 7.5664,0 13.0821,1.5508 18.4922,5.0195 7.1914,4.9219 11.3828,12.1172 11.3828,19.8047 0,5.1562 -2.0312,10.6836 -5.3906,14.5308 -3.2422,3.836 -7.1953,5.997 -14.5234,8.282 l -9.4766,2.996 c -9.7305,3 -13.6914,6.836 -13.6914,13.437 0,8.399 6.1289,13.567 16.4492,13.567 7.082,0 12.1289,-1.809 20.0391,-6.965 l 4.3203,7.09 c -7.7891,5.269 -15.9609,7.902 -24.8359,7.902 M 95.1602,137.898 H 117.242 V 63.8438 h 9.461 v 74.0542 h 22.32 l 0.602,8.254 H 95.1602 Z M 193.434,63.8438 h 9.828 v 37.0902 c 4.082,-0.125 5.879,-1.2113 9.121,-5.2934 4.449,-5.3984 9.492,-12.5976 14.648,-20.4101 3.606,-5.5157 4.446,-7.0703 6.364,-11.3867 h 12.347 c 0,0 -9.226,13.789 -12.23,18.2421 -2.875,4.0743 -5.039,7.3164 -6.719,9.6016 -1.68,2.2734 -4.438,6.1133 -8.281,9.2465 h 1.199 c 13.082,0 21.832,8.996 21.832,22.609 0,8.797 -4.43,14.344 -8.148,17.344 -3.961,3.23 -9.485,5.265 -20.774,5.265 h -19.187 z m 19.425,74.0432 c 4.454,0 7.692,-0.606 10.332,-1.688 4.68,-1.808 8.043,-7.109 8.043,-12.539 0,-5.422 -1.437,-9.875 -4.203,-12.402 -3,-3.02 -7.558,-4.219 -14.886,-4.219 h -8.762 v 30.848 z m 74.676,-49.2073 c 0,-9.1211 0.602,-10.8008 2.387,-14.4063 3.844,-7.7929 11.633,-11.875 24.359,-11.875 9.961,0 16.574,2.043 21.602,6.3594 5.031,4.4336 6.23,8.3985 6.23,20.1563 V 146.152 H 332.41 V 89.9961 c 0,-7.6836 -0.597,-10.6836 -3.129,-14.043 -2.519,-3.3593 -7.679,-5.1562 -14.519,-5.1562 -9.25,0 -15.25,3.5937 -16.692,10.0781 -0.476,2.2773 -0.84,6.9648 -0.84,12.6094 v 52.6676 h -9.695 z M 392.172,63.8438 h 21.23 c 12.243,0 14.278,0.246 18.723,1.9257 8.156,2.8711 13.91,11.6211 13.91,20.6328 0,6.4844 -2.883,13.0782 -7.312,16.5627 -2.75,2.16 -4.801,3 -10.918,4.562 9.359,2.989 14.758,9.461 14.758,17.996 0,8.399 -5.637,15.957 -14.04,18.829 -4.203,1.441 -8.164,1.8 -24.492,1.8 h -11.859 z m 21.109,74.0432 c 4.203,0 6.723,-0.125 9.004,-0.723 5.641,-1.316 9.356,-6.484 9.356,-12.957 0,-2.285 -0.481,-4.453 -1.321,-6.367 -2.394,-5.527 -5.515,-7.082 -14.398,-7.082 h -14.289 v 27.129 z m 2.879,-35.282 c 4.082,0 7.32,-0.363 9.602,-0.839 5.879,-1.321 9.968,-7.3246 9.968,-14.5238 0,-2.4024 -0.476,-4.6758 -1.328,-6.8438 -2.64,-6.6015 -6.238,-8.5273 -16.32,-8.5273 h -16.449 v 30.7339 z m 76.813,-38.7612 h 46.183 v 8.5078 h -36.242 v 29.8904 h 28.199 v 8.516 h -28.199 v 26.64 h 33.719 l 1.32,8.157 h -44.98 z m 91.91,0 h 41.031 l 1.316,8.2734 h -32.519 v 74.0348 h -9.828 z m 86.277,0 h 9.594 v 82.3012 h -9.594 z m 58.801,0 h 9.48 l 4.563,58.5542 c 0.359,5.051 0.957,15.977 0.957,15.977 1.199,-5.77 2.402,-9.852 4.082,-16.094 l 16.316,-58.4372 h 8.407 l 17.636,61.4372 c 0.961,3.242 2.403,8.887 3.243,12.977 0,0 0.238,-8.778 0.597,-14.051 l 4.801,-60.3632 h 9.828 l -7.078,82.3082 H 788.281 L 772.805,91.4336 c -1.082,-4.1992 -1.684,-6.4766 -3,-13.4375 -1.082,6.3555 -1.68,8.6406 -3.242,14.3945 l -15,53.7614 h -14.399 z m 123.844,24.8359 c 0,-9.1211 0.597,-10.8008 2.394,-14.4063 3.836,-7.7929 11.633,-11.875 24.352,-11.875 9.972,0 16.574,2.043 21.613,6.3594 5.027,4.4336 6.231,8.3985 6.231,20.1563 v 57.2379 h -9.711 V 89.9961 c 0,-7.6836 -0.602,-10.6836 -3.121,-14.043 -2.52,-3.3593 -7.68,-5.1562 -14.528,-5.1562 -9.242,0 -15.242,3.5937 -16.683,10.0781 -0.481,2.2773 -0.84,6.9648 -0.84,12.6094 v 52.6676 h -9.707 z m 96.355,49.2183 h 22.082 V 63.8438 h 9.473 v 74.0542 h 22.315 l 0.6,8.254 h -54.47 z m 91.55,-0.839 h 30.72 c 3.61,0 6.24,0 8.52,0.117 -1.79,-2.297 -3.72,-5.41 -5.28,-7.93 l -35.16,-57.8515 v -7.5507 h 48.84 l 2.53,8.3906 h -32.65 c -2.76,0 -4.2,0 -7.08,-0.1172 1.81,2.7539 3.24,4.9219 5.04,7.918 l 34.2,56.8868 v 8.391 h -46.92 l -2.76,-8.254" /><path
         id="path24"
         style="fill:#834d2f;fill-opacity:1;fill-rule:nonzero;stroke:none"
         d="m 1181.27,15.2695 c 17.26,58.5547 29.59,178.5745 41.92,187.2075 0,0 -28.67,12.949 -31.44,18.492 -4.32,8.636 3.7,30.828 25.27,24.66 21.58,-6.164 14.8,-21.574 14.8,-21.574 0,0 19.11,10.484 27.74,10.484 8.63,0 14.79,8.121 19.72,12.07 4.94,3.95 -6.16,-10.839 -3.69,-10.839 2.46,0 9.81,-10.465 14.17,0 3.09,7.394 22.81,28.968 22.81,28.968 0,0 -7.89,-17.453 -9.25,-28.968 -0.64,-5.512 12.33,10.476 12.33,16.027 0,5.539 -1.85,-16.649 3.7,-17.879 5.55,-1.23 35.14,-3.082 35.14,-3.082 0,0 14.18,24.039 17.88,23.418 3.69,-0.606 -9.25,-22.188 -3.7,-24.649 5.55,-2.468 16.64,-2.468 18.49,-3.089 1.85,-0.61 33.29,-6.157 40.07,-8.008 6.78,-1.852 12.94,-8.012 20.34,0 7.4,8.008 1.85,-6.781 6.78,-7.403 4.93,-0.609 8.02,12.329 8.02,17.879 0,5.555 1.23,-19.73 3.69,-21.574 2.47,-1.851 13.57,-8.012 13.57,-8.012 0,0 12.31,22.813 26.5,17.258 14.18,-5.551 24.04,-21.582 5.55,-27.738 -18.5,-6.16 -22.81,-4.934 -22.81,-4.934 l 40.65,-168.7145" /><path
         id="path26"
         style="fill:#ffffff;fill-opacity:1;fill-rule:nonzero;stroke:none"
         d="m 1225.65,223.824 -5.55,-7.398 c 0,0 -13.59,2.879 -14.79,7.398 -1.97,7.383 4.07,12.332 10.05,9.254 5.97,-3.09 10.29,-9.254 10.29,-9.254" /><path
         id="path28"
         style="fill:#ffffff;fill-opacity:1;fill-rule:nonzero;stroke:none"
         d="m 1485.18,196.316 5.54,-6.164 c 0,0 16.03,3.082 16.03,6.164 0,3.082 -2.47,7.399 -8.02,7.399 -5.55,0 -13.55,-7.399 -13.55,-7.399" /><path
         id="path30"
         style="fill:#ffffff;fill-opacity:1;fill-rule:nonzero;stroke:none"
         d="m 1339.69,105.816 c 0,0 -13.17,-7.3121 2.97,-20.359 16.14,-13.0468 26.62,-9.9609 31.55,-4.414 4.93,5.5468 13.56,15.4101 13.56,18.4843 0,3.0857 -17.87,14.4337 -48.08,6.2887" /><path
         id="path32"
         style="fill:#82bae7;fill-opacity:1;fill-rule:nonzero;stroke:none"
         d="m 1322.46,138.121 c 0,-3.621 -2.94,-6.551 -6.56,-6.551 -3.62,0 -6.57,2.93 -6.57,6.551 0,3.633 2.95,6.563 6.57,6.563 3.62,0 6.56,-2.93 6.56,-6.563" /><path
         id="path34"
         style="fill:#82bae7;fill-opacity:1;fill-rule:nonzero;stroke:none"
         d="m 1409.14,138.121 c 0,-3.621 -2.94,-6.551 -6.56,-6.551 -3.63,0 -6.57,2.93 -6.57,6.551 0,3.633 2.94,6.563 6.57,6.563 3.62,0 6.56,-2.93 6.56,-6.563" /><path
         id="path36"
         style="fill:#834d2f;fill-opacity:1;fill-rule:nonzero;stroke:none"
         d="m 1360.02,93.4336 c 0.68,0 1.23,0.5469 1.23,1.2305 0,0.6757 -0.55,1.2304 -1.23,1.2304 -0.67,0 -1.23,-0.5547 -1.23,-1.2304 0,-0.6836 0.56,-1.2305 1.23,-1.2305" /><path
         id="path38"
         style="fill:none;stroke:#834d2f;stroke-width:15.52999973;stroke-linecap:butt;stroke-linejoin:miter;stroke-miterlimit:4;stroke-dasharray:none;stroke-opacity:1"
         d="m 1360.02,93.4336 c 0.68,0 1.23,0.5469 1.23,1.2305 0,0.6757 -0.55,1.2304 -1.23,1.2304 -0.67,0 -1.23,-0.5547 -1.23,-1.2304 0,-0.6836 0.56,-1.2305 1.23,-1.2305 z" /><path
         id="path40"
         style="fill:none;stroke:#834d2f;stroke-width:3;stroke-linecap:butt;stroke-linejoin:miter;stroke-miterlimit:4;stroke-dasharray:none;stroke-opacity:1"
         d="m 1362.42,89 c 0,0 -14.42,-11.0742 -23.38,-2.8906" /><path
         id="path42"
         style="fill:none;stroke:#834d2f;stroke-width:3;stroke-linecap:butt;stroke-linejoin:miter;stroke-miterlimit:4;stroke-dasharray:none;stroke-opacity:1"
         d="m 1358.7,89 c 0,0 14.42,-11.0742 23.38,-2.8906" /><path
         id="path44"
         style="fill:#ffffff;fill-opacity:1;fill-rule:nonzero;stroke:none"
         d="m 1249.58,14.793 c 0,0 78.8,44.3359 145.14,24.6367 66.32,-19.7149 64.86,-24.2188 64.86,-24.2188 l -210,-0.4179" /></g></g></svg>